<?xml version="1.0" standalone="yes"?><svg version="1.1" viewBox="0.0 0.0 993.0341207349081 148.89763779527559" fill="none" stroke="none" stroke-linecap="square" stroke-miterlimit="10" xmlns="http://www.w3.org/2000/svg" xmlns:xlink="http://www.w3.org/1999/xlink"><clipPath id="p.0"><path d="m0 0l993.0341 0l0 148.89764l-993.0341 0l0 -148.89764z" clip-rule="nonzero"></path></clipPath><g clip-path="url(#p.0)"><path fill="#000" fill-opacity="0.0" d="m0 0l993.0341 0l0 148.89764l-993.0341 0z" fill-rule="evenodd"></path><path fill="#000" fill-opacity="0.0" d="m160.41713 -21.759653l163.9055 0l0 181.48032l-163.9055 0z" fill-rule="evenodd"></path><path fill="#000" d="m298.673 8.574254l0 75.40625q0 26.40625 -15.703125 42.5q-15.703125 16.093742 -40.703125 16.093742q-24.796875 0 -40.5 -16.093742q-15.703125 -16.09375 -15.703125 -42.5l0 -75.40625l15.0 0l0 75.8125q0 21.390625 12.8125 33.390625q11.0 10.203125 28.390625 10.203125q17.40625 0 28.609375 -10.203125q12.796875 -11.796875 12.796875 -33.390625l0 -75.8125l15.0 0z" fill-rule="nonzero"></path><path fill="#000" fill-opacity="0.0" d="m326.3342 -21.759653l163.90552 0l0 181.48032l-163.90552 0z" fill-rule="evenodd"></path><path fill="#000" d="m372.5901 140.9805l-15.0 0l0 -132.40625l63.390625 0q20.203125 0 32.40625 11.203126q12.2030945 11.0 12.2030945 30.203123q0 24.796879 -20.609344 33.79688q-5.796875 2.609375 -11.390625 3.796875l34.796844 53.406242l-17.796844 0l-32.0 -50.796867l-46.0 0l0 50.796867zm0 -64.99999l45.796875 0q21.203125 0 29.203125 -13.203129q3.0 -5.0 3.0 -12.796875q0 -12.59375 -8.609375 -19.890623q-8.59375 -7.3125 -22.796875 -7.3125l-46.59375 0l0 53.203125z" fill-rule="nonzero"></path><path fill="#000" fill-opacity="0.0" d="m665.9793 -21.759653l163.90552 0l0 181.48032l-163.90552 0z" fill-rule="evenodd"></path><path fill="#000" d="m712.23517 140.9805l-15.0 0l0 -132.40625l63.390625 0q20.203125 0 32.40625 11.203126q12.203125 11.0 12.203125 30.203123q0 24.796879 -20.609375 33.79688q-5.796875 2.609375 -11.390625 3.796875l34.796875 53.406242l-17.796875 0l-32.0 -50.796867l-46.0 0l0 50.796867zm0 -64.99999l45.796875 0q21.203125 0 29.203125 -13.203129q3.0 -5.0 3.0 -12.796875q0 -12.59375 -8.609375 -19.890623q-8.59375 -7.3125 -22.796875 -7.3125l-46.59375 0l0 53.203125z" fill-rule="nonzero"></path><path fill="#000" fill-opacity="0.0" d="m-9.334093 -21.759653l163.9055 0l0 181.48032l-163.9055 0z" fill-rule="evenodd"></path><path fill="#000" d="m138.21553 140.9805l-16.59375 0l-16.203125 -38.406242l-65.59375 0l-16.203123 38.406242l-16.609375 0l56.203125 -132.40625l18.796879 0l56.203125 132.40625zm-38.59375 -52.203117l-27.0 -64.59375l-27.000004 64.59375l54.000004 0z" fill-rule="nonzero"></path><path fill="#000" fill-opacity="0.0" d="m496.2281 -21.759653l163.90552 0l0 181.48032l-163.90552 0z" fill-rule="evenodd"></path><path fill="#000" d="m580.2281 6.9805045q29.59375 0 48.59375 19.796875q18.609375 19.203123 18.609375 48.0q0 28.796875 -18.609375 48.0q-19.0 19.796867 -48.59375 19.796867q-29.59375 0 -48.59375 -19.796867q-18.609375 -19.203125 -18.609375 -48.0q0 -28.796879 18.609375 -48.0q19.0 -19.796875 48.59375 -19.796875zm0 121.0q23.59375 0 38.203125 -15.40625q14.0 -14.796875 14.0 -37.796875q0 -23.000004 -14.0 -37.79688q-14.609375 -15.406248 -38.203125 -15.406248q-23.59375 0 -38.203125 15.406248q-14.0 14.796875 -14.0 37.79688q0 23.0 14.0 37.796875q14.609375 15.40625 38.203125 15.40625z" fill-rule="nonzero"></path><path fill="#000" fill-opacity="0.0" d="m838.1452 -21.759653l163.90546 0l0 181.48032l-163.90546 0z" fill-rule="evenodd"></path><path fill="#000" d="m985.6948 140.9805l-16.59375 0l-16.203125 -38.406242l-65.59375 0l-16.203125 38.406242l-16.609375 0l56.203125 -132.40625l18.796875 0l56.203125 132.40625zm-38.59375 -52.203117l-27.0 -64.59375l-27.0 64.59375l54.0 0z" fill-rule="nonzero"></path></g></svg>

